<!DOCTYPE svg PUBLIC "-//W3C//DTD SVG 20010904//EN" "http://www.w3.org/TR/2001/REC-SVG-20010904/DTD/svg10.dtd">
<svg version="1.0" xmlns="http://www.w3.org/2000/svg" width="45px" height="46px" viewBox="0 0 450 460" preserveAspectRatio="xMidYMid meet">
<g id="layer101" fill="#f6772c" stroke="none">
 <path d="M146 445 c-84 -30 -145 -119 -146 -213 0 -130 94 -225 225 -225 131 0 225 95 225 225 -1 158 -155 266 -304 213z m192 -52 c76 -62 101 -128 80 -210 -15 -61 -79 -127 -139 -143 -127 -34 -254 64 -253 195 1 63 21 103 75 148 48 42 64 47 143 42 46 -3 65 -9 94 -32z"/>
 <path d="M179 391 c-103 -33 -153 -158 -96 -242 72 -107 212 -107 284 0 45 66 20 177 -50 220 -38 24 -101 34 -138 22z m107 -37 c46 -22 74 -70 74 -127 0 -37 -6 -53 -31 -81 -58 -67 -149 -67 -208 -1 -25 29 -31 45 -31 82 0 108 100 172 196 127z"/>
 <path d="M147 273 c-4 -3 -7 -17 -7 -30 0 -20 5 -23 34 -23 l35 0 3 -52 c3 -49 5 -53 28 -53 24 0 25 2 28 83 l3 82 -59 0 c-32 0 -62 -3 -65 -7z m102 -80 c-1 -62 -6 -56 -11 15 -2 23 0 42 4 42 5 0 7 -26 7 -57z"/>
 </g>

</svg>