<!DOCTYPE svg PUBLIC "-//W3C//DTD SVG 20010904//EN" "http://www.w3.org/TR/2001/REC-SVG-20010904/DTD/svg10.dtd">
<svg version="1.0" xmlns="http://www.w3.org/2000/svg" width="47px" height="47px" viewBox="0 0 470 470" preserveAspectRatio="xMidYMid meet">
<g id="layer101" fill="#709dca" stroke="none">
 <path d="M152 455 c-49 -21 -49 -38 2 -89 25 -25 46 -52 46 -59 0 -8 9 -22 20 -32 19 -17 20 -17 37 16 10 18 38 54 62 81 36 40 41 50 31 63 -28 34 -140 45 -198 20z m145 -26 l28 -11 -22 -17 c-12 -10 -33 -35 -47 -55 l-25 -37 -14 28 c-9 15 -27 39 -41 52 -14 14 -26 28 -26 32 0 19 104 25 147 8z"/>
 <path d="M29 353 c-17 -27 -25 -57 -27 -106 -4 -57 0 -75 23 -122 32 -66 98 -117 154 -119 l36 -1 3 99 c4 124 -13 179 -73 241 -56 57 -85 59 -116 8z m93 -30 c54 -55 68 -97 68 -203 0 -56 -4 -90 -10 -90 -24 0 -70 32 -103 71 -43 49 -59 111 -45 172 9 43 33 87 46 87 4 0 24 -17 44 -37z"/>
 <path d="M326 347 c-63 -63 -77 -110 -74 -237 3 -99 4 -105 25 -108 51 -7 148 70 177 140 22 52 20 134 -5 188 -34 75 -61 79 -123 17z m96 -28 c26 -49 23 -134 -5 -183 -26 -46 -81 -92 -121 -102 l-29 -7 6 95 c6 106 27 161 80 211 36 33 47 31 69 -14z"/>
 </g>

</svg>