<!DOCTYPE svg PUBLIC "-//W3C//DTD SVG 20010904//EN" "http://www.w3.org/TR/2001/REC-SVG-20010904/DTD/svg10.dtd">
<svg version="1.0" xmlns="http://www.w3.org/2000/svg" width="31px" height="55px" viewBox="0 0 310 550" preserveAspectRatio="xMidYMid meet">
<g id="layer101" fill="#709dca" stroke="none">
 <path d="M123 543 c-7 -2 -13 -17 -13 -33 0 -22 -6 -29 -27 -35 -39 -9 -83 -44 -83 -64 0 -22 37 -71 54 -71 6 0 29 9 51 20 47 24 59 25 75 6 10 -13 -1 -21 -63 -50 -86 -41 -112 -72 -111 -131 1 -50 23 -86 69 -111 23 -12 35 -26 37 -44 3 -23 7 -25 48 -25 41 0 45 2 48 27 2 18 12 30 33 38 16 7 36 22 44 33 12 17 11 24 -2 53 -20 41 -36 48 -73 29 -33 -17 -76 -20 -85 -5 -3 5 28 25 70 45 87 41 110 70 109 131 -1 50 -24 89 -65 112 -18 11 -29 25 -29 39 0 33 -47 53 -87 36z m57 -52 c0 -23 6 -31 31 -41 32 -14 69 -62 69 -92 0 -43 -25 -69 -99 -106 -79 -38 -98 -65 -71 -98 16 -18 80 -18 107 1 16 11 23 12 30 2 26 -33 24 -38 -21 -58 -37 -16 -46 -25 -46 -44 0 -20 -5 -25 -25 -25 -21 0 -25 5 -25 30 0 21 -5 30 -16 30 -25 0 -84 65 -84 93 0 38 37 76 109 110 56 27 66 36 69 61 2 16 -1 33 -6 38 -16 16 -76 12 -112 -7 -32 -17 -34 -16 -47 1 -20 27 -17 31 37 56 37 17 50 28 50 44 0 25 8 34 32 34 13 0 18 -8 18 -29z"/>
 </g>

</svg>