<!DOCTYPE svg PUBLIC "-//W3C//DTD SVG 20010904//EN" "http://www.w3.org/TR/2001/REC-SVG-20010904/DTD/svg10.dtd">
<svg version="1.0" xmlns="http://www.w3.org/2000/svg" width="66px" height="48px" viewBox="0 0 660 480" preserveAspectRatio="xMidYMid meet">
<g id="layer101" fill="#709dca" stroke="none">
 <path d="M81 451 c-10 -7 -14 -24 -12 -58 2 -26 4 -70 5 -98 1 -27 5 -62 10 -76 7 -25 4 -28 -29 -39 -31 -10 -36 -16 -33 -38 3 -24 14 -29 153 -74 l150 -48 154 47 c87 27 156 53 159 62 9 24 -12 43 -68 60 l-55 17 -5 68 c-5 72 -9 77 -75 103 -42 16 -172 15 -220 -2 -22 -8 -42 -15 -43 -15 -2 0 -1 18 3 39 5 33 3 41 -14 50 -24 13 -61 14 -80 2z m65 -48 c-9 -50 -10 -88 -2 -101 4 -7 3 -19 -4 -26 -11 -14 -5 -61 12 -82 6 -9 29 -5 86 12 42 13 83 24 91 24 24 0 281 -83 276 -89 -3 -2 -66 -24 -141 -48 l-135 -42 -127 40 c-171 53 -164 49 -114 66 33 12 42 19 37 32 -4 9 -9 30 -12 46 -3 17 -10 36 -16 43 -7 9 -7 16 1 24 6 6 9 24 6 39 -2 16 -6 43 -9 59 -4 28 -2 30 26 30 28 0 30 -2 25 -27z m287 -56 c46 -20 56 -36 48 -79 l-6 -36 -72 23 -73 23 -74 -23 -74 -23 -6 33 c-9 45 0 61 42 79 46 19 172 21 215 3z"/>
 </g>

</svg>