<!DOCTYPE svg PUBLIC "-//W3C//DTD SVG 20010904//EN" "http://www.w3.org/TR/2001/REC-SVG-20010904/DTD/svg10.dtd">
<svg version="1.0" xmlns="http://www.w3.org/2000/svg" width="50px" height="51px" viewBox="0 0 500 510" preserveAspectRatio="xMidYMid meet">
<g id="layer101" fill="#709dca" stroke="none">
 <path d="M182 494 c-23 -16 -28 -47 -13 -87 8 -21 5 -29 -19 -52 -27 -26 -32 -27 -69 -18 -47 12 -81 -4 -81 -39 0 -28 57 -126 80 -138 10 -6 38 -10 62 -10 38 0 48 -6 91 -50 58 -58 112 -86 188 -95 72 -9 84 4 75 78 -10 75 -38 129 -95 190 -45 48 -51 59 -51 98 0 24 -4 49 -8 55 -7 11 -122 84 -132 84 -3 0 -16 -7 -28 -16z m138 -134 c0 -53 2 -57 43 -91 53 -45 96 -123 104 -190 l6 -52 -54 7 c-65 9 -119 39 -179 100 -41 43 -48 46 -96 46 l-52 0 -35 59 c-42 71 -36 86 28 66 l43 -13 41 42 c39 40 40 43 29 78 -6 20 -8 44 -5 53 6 14 15 12 67 -17 l60 -33 0 -55z"/>
 <path d="M367 143 c-4 -3 -7 -17 -7 -30 0 -18 6 -23 24 -23 13 0 27 7 30 16 11 28 -27 57 -47 37z"/>
 </g>

</svg>