<!DOCTYPE svg PUBLIC "-//W3C//DTD SVG 20010904//EN" "http://www.w3.org/TR/2001/REC-SVG-20010904/DTD/svg10.dtd">
<svg version="1.0" xmlns="http://www.w3.org/2000/svg" width="285px" height="298px" viewBox="0 0 2850 2980" preserveAspectRatio="xMidYMid meet">
<g id="layer101" fill="#394b50" stroke="none">
 <path d="M1387 2943 c-13 -21 -29 -48 -35 -59 -9 -18 -27 -23 -101 -33 -625 -80 -1129 -562 -1235 -1180 -21 -124 -21 -358 0 -482 99 -581 543 -1040 1127 -1166 116 -25 448 -25 564 0 274 59 535 200 728 392 203 204 350 489 399 774 21 124 21 358 0 482 -50 293 -186 552 -403 770 -239 239 -515 372 -858 414 -50 7 -53 8 -85 63 -43 72 -67 78 -101 25z"/>
 </g>
<g id="layer102" fill="#7a8689" stroke="none">
 <path d="M1387 2943 c-13 -21 -29 -48 -35 -59 -9 -18 -27 -23 -101 -33 -625 -80 -1129 -562 -1235 -1180 -21 -124 -21 -358 0 -482 99 -581 543 -1040 1127 -1166 116 -25 448 -25 564 0 274 59 535 200 728 392 203 204 350 489 399 774 21 124 21 358 0 482 -50 293 -186 552 -403 770 -239 239 -515 372 -858 414 -50 7 -53 8 -85 63 -43 72 -67 78 -101 25z m80 -60 l32 -58 127 -18 c370 -51 692 -245 921 -553 368 -497 358 -1190 -23 -1680 -78 -100 -220 -235 -316 -300 -239 -161 -491 -237 -783 -237 -367 0 -684 124 -946 371 -262 247 -403 537 -440 902 -29 292 51 622 212 870 230 355 592 583 1005 632 l105 12 32 58 c17 32 34 58 37 58 3 0 20 -26 37 -57z"/>
 </g>
<g id="layer103" fill="#a5adaf" stroke="none">
 <path d="M1387 2943 c-13 -21 -29 -48 -35 -59 -9 -18 -27 -23 -101 -33 -625 -80 -1129 -562 -1235 -1180 -21 -124 -21 -358 0 -482 99 -581 543 -1040 1127 -1166 116 -25 448 -25 564 0 274 59 535 200 728 392 203 204 350 489 399 774 21 124 21 358 0 482 -50 293 -186 552 -403 770 -239 239 -515 372 -858 414 -50 7 -53 8 -85 63 -43 72 -67 78 -101 25z m81 -62 l32 -58 73 -6 c192 -16 430 -99 597 -208 327 -212 550 -541 626 -924 22 -113 25 -378 5 -480 -52 -272 -138 -463 -295 -655 -274 -335 -650 -514 -1081 -514 -431 0 -807 179 -1081 514 -460 564 -404 1398 127 1895 230 214 525 350 810 372 l77 6 33 58 c19 32 36 59 39 59 3 0 20 -26 38 -59z"/>
 </g>
<g id="layer104" fill="#fbfbfb" stroke="none">
 <path d="M1387 2943 c-13 -21 -29 -48 -35 -59 -9 -18 -27 -23 -101 -33 -625 -80 -1129 -562 -1235 -1180 -21 -124 -21 -358 0 -482 99 -581 543 -1040 1127 -1166 116 -25 448 -25 564 0 274 59 535 200 728 392 203 204 350 489 399 774 21 124 21 358 0 482 -50 293 -186 552 -403 770 -239 239 -515 372 -858 414 -50 7 -53 8 -85 63 -43 72 -67 78 -101 25z m82 -57 c29 -52 33 -55 78 -61 105 -13 232 -39 303 -62 473 -156 823 -539 936 -1023 31 -132 42 -346 25 -484 -89 -701 -682 -1226 -1386 -1226 -704 0 -1297 525 -1386 1226 -25 203 5 473 74 654 194 513 639 855 1190 915 l57 6 32 59 c18 32 36 56 39 54 4 -2 21 -28 38 -58z"/>
 </g>

</svg>