<!DOCTYPE svg PUBLIC "-//W3C//DTD SVG 20010904//EN" "http://www.w3.org/TR/2001/REC-SVG-20010904/DTD/svg10.dtd">
<svg version="1.0" xmlns="http://www.w3.org/2000/svg" width="51px" height="66px" viewBox="0 0 510 660" preserveAspectRatio="xMidYMid meet">
<g id="layer101" fill="#709dca" stroke="none">
 <path d="M16 644 c-13 -13 -16 -42 -16 -159 0 -141 0 -144 25 -163 23 -18 25 -27 25 -94 0 -59 5 -84 23 -119 77 -145 283 -144 357 2 22 43 26 109 8 127 -16 16 -80 16 -96 0 -7 -7 -12 -22 -12 -34 0 -37 -42 -77 -79 -77 -53 0 -75 31 -79 113 l-4 70 150 0 c200 0 196 -4 190 198 -2 82 -7 124 -17 135 -12 15 -41 17 -237 17 -189 0 -225 -2 -238 -16z m448 -20 c13 -12 16 -40 16 -138 0 -81 -4 -126 -12 -134 -8 -8 -59 -12 -165 -12 l-153 0 0 -91 c0 -87 1 -92 29 -120 41 -41 105 -41 144 -1 15 15 30 42 33 60 6 30 10 33 38 30 28 -3 31 -6 28 -33 -9 -85 -72 -146 -157 -153 -68 -6 -126 25 -161 84 -21 35 -24 54 -24 132 0 85 -2 92 -20 92 -31 0 -40 32 -40 147 0 162 -13 153 230 153 167 0 201 -2 214 -16z"/>
 </g>

</svg>