<!DOCTYPE svg PUBLIC "-//W3C//DTD SVG 20010904//EN" "http://www.w3.org/TR/2001/REC-SVG-20010904/DTD/svg10.dtd">
<svg version="1.0" xmlns="http://www.w3.org/2000/svg" width="71px" height="61px" viewBox="0 0 710 610" preserveAspectRatio="xMidYMid meet">
<g id="layer101" fill="#709dca" stroke="none">
 <path d="M215 600 c-3 -5 -21 -17 -40 -24 -18 -8 -41 -26 -50 -40 -10 -16 -30 -28 -51 -32 -54 -10 -69 -48 -69 -169 0 -92 2 -104 28 -148 41 -69 92 -115 166 -151 59 -28 76 -31 156 -31 80 0 97 3 156 31 74 36 125 82 166 151 26 44 28 56 28 148 0 121 -15 159 -69 169 -21 4 -41 16 -51 32 -9 14 -28 30 -43 36 -15 7 -34 18 -44 26 -9 7 -31 12 -50 10 l-33 -3 0 -145 0 -145 38 -3 c26 -2 39 1 43 12 3 9 14 16 23 16 9 0 25 7 35 15 29 22 36 19 36 -18 0 -76 -70 -165 -153 -196 -36 -14 -128 -14 -164 0 -83 31 -153 120 -153 196 0 37 7 40 36 18 10 -8 26 -15 35 -15 9 0 20 -7 23 -16 4 -11 17 -14 43 -12 l38 3 0 145 0 145 -37 3 c-20 2 -39 -2 -43 -8z m60 -135 c0 -106 -2 -120 -17 -123 -10 -2 -25 4 -34 12 -8 9 -21 16 -28 16 -7 0 -21 9 -31 20 -10 11 -28 20 -40 20 -19 0 -24 -7 -29 -44 -8 -53 -1 -88 30 -142 94 -165 364 -165 458 0 31 54 38 89 30 142 -5 37 -10 44 -29 44 -12 0 -30 -9 -40 -20 -10 -11 -24 -20 -31 -20 -7 0 -20 -7 -28 -16 -9 -8 -24 -14 -34 -12 -15 3 -17 18 -20 121 -2 102 0 118 14 124 10 4 22 0 28 -8 6 -8 26 -21 44 -28 18 -8 40 -26 49 -41 11 -20 27 -30 53 -34 34 -5 38 -10 51 -53 41 -148 -32 -298 -179 -366 -67 -31 -207 -31 -274 0 -147 68 -220 218 -179 366 13 44 16 48 51 53 27 4 41 13 49 30 6 13 28 32 48 42 21 9 42 23 46 30 5 7 16 12 25 10 15 -3 17 -19 17 -123z"/>
 </g>

</svg>