<!DOCTYPE svg PUBLIC "-//W3C//DTD SVG 20010904//EN" "http://www.w3.org/TR/2001/REC-SVG-20010904/DTD/svg10.dtd">
<svg version="1.0" xmlns="http://www.w3.org/2000/svg" width="82px" height="61px" viewBox="0 0 820 610" preserveAspectRatio="xMidYMid meet">
<g id="layer101" fill="#709dca" stroke="none">
 <path d="M115 596 c-38 -17 -90 -72 -104 -109 -14 -36 -14 -118 0 -154 5 -15 27 -46 49 -68 27 -28 40 -53 45 -82 12 -73 77 -145 154 -171 80 -28 189 3 244 67 23 28 31 32 57 26 74 -16 150 44 150 120 0 37 5 47 29 64 112 80 93 263 -32 310 -44 17 -554 14 -592 -3z m559 -17 c22 -6 52 -23 67 -38 69 -69 57 -178 -26 -230 -41 -25 -42 -27 -37 -73 4 -40 1 -50 -21 -72 -34 -34 -72 -42 -110 -24 -31 15 -32 14 -48 -16 -38 -73 -149 -114 -233 -86 -73 24 -135 103 -136 173 0 19 -13 40 -44 70 -77 74 -82 168 -13 243 53 57 84 63 337 64 133 0 241 -5 264 -11z"/>
 <path d="M327 484 c-4 -4 -7 -38 -7 -76 l0 -68 -44 0 c-25 0 -48 -5 -52 -11 -4 -7 28 -46 75 -93 l81 -81 81 81 c47 47 79 86 75 93 -4 6 -27 11 -51 11 l-44 0 -3 73 -3 72 -50 3 c-28 2 -54 0 -58 -4z m85 -96 l3 -73 38 -5 38 -5 -56 -55 -55 -54 -55 54 -56 55 38 5 38 5 3 73 3 72 29 0 29 0 3 -72z"/>
 </g>

</svg>